<svg width="31" height="30" viewBox="0 0 31 30" fill="none" xmlns="http://www.w3.org/2000/svg">
<path fill-rule="evenodd" clip-rule="evenodd" d="M3.83317 0.0146484H27.1665C28.7773 0.0146484 30.0832 1.35171 30.0832 3.00106V26.8924C30.0832 28.5417 28.7773 29.8788 27.1665 29.8788H3.83317C2.22234 29.8788 0.916504 28.5417 0.916504 26.8924V3.00106C0.916504 1.35171 2.22234 0.0146484 3.83317 0.0146484ZM3.83317 2.99326V26.8845H27.1665V2.99326H3.83317ZM14.2355 14.9559H16.9582V23.9086H19.8748V14.9559H22.7659V11.9695H19.8748V10.4697C19.8748 9.64506 20.5278 8.97653 21.3332 8.97653H22.7915V5.99012H21.3332C18.9169 5.99012 16.9582 7.99571 16.9582 10.4697V11.9695H14.2355V14.9559Z" fill="black"/>
</svg>
