<svg width="32" height="30" viewBox="0 0 32 30" fill="none" xmlns="http://www.w3.org/2000/svg">
<path fill-rule="evenodd" clip-rule="evenodd" d="M22.3332 0.0117188H9.6665C4.4198 0.0117188 0.166504 4.0205 0.166504 8.96559V20.9041C0.166504 25.8492 4.4198 29.858 9.6665 29.858H22.3332C27.5799 29.858 31.8332 25.8492 31.8332 20.9041V8.96559C31.8332 4.0205 27.5799 0.0117188 22.3332 0.0117188ZM3.33317 8.9601C3.33317 5.66338 6.1687 2.99086 9.6665 2.99086H22.3332C25.831 2.99086 28.6665 5.66338 28.6665 8.9601V20.8986C28.6665 24.1953 25.831 26.8678 22.3332 26.8678H9.6665C6.1687 26.8678 3.33317 24.1953 3.33317 20.8986V8.9601ZM15.9998 22.3729C11.6276 22.3729 8.08317 19.0323 8.08317 14.9114C8.08317 10.7905 11.6276 7.44981 15.9998 7.44981C20.3721 7.44981 23.9165 10.7905 23.9165 14.9114C23.9165 19.0323 20.3721 22.3729 15.9998 22.3729ZM15.9998 19.4065C18.6232 19.4065 20.7498 17.3971 20.7498 14.9184C20.7498 12.4398 18.6232 10.4304 15.9998 10.4304C13.3765 10.4304 11.2498 12.4398 11.2498 14.9184C11.2498 17.3971 13.3765 19.4065 15.9998 19.4065ZM25.4998 7.48176C25.4998 8.31353 24.791 8.98781 23.9165 8.98781C23.0421 8.98781 22.3332 8.31353 22.3332 7.48176C22.3332 6.64998 23.0421 5.9757 23.9165 5.9757C24.791 5.9757 25.4998 6.64998 25.4998 7.48176Z" fill="black"/>
</svg>
