<svg width="23" height="22" viewBox="0 0 23 22" fill="none" xmlns="http://www.w3.org/2000/svg">
<path fill-rule="evenodd" clip-rule="evenodd" d="M10.2137 6.8806C10.7966 6.14004 11.0056 5.35956 10.3464 4.67063C8.86705 2.71906 7.87216 1.51221 7.24812 0.931024C6.06174 -0.173891 4.11013 -0.0244339 3.08264 0.93008C2.53076 1.44276 2.34393 1.61881 1.77727 2.16145C-1.37909 5.13887 0.545824 11.433 5.66294 16.2622C10.7789 21.0902 17.4543 22.906 20.6172 19.9223C21.1401 19.447 21.5829 19.0294 21.932 18.6815C22.9389 17.6781 23.0918 15.9193 21.9254 14.7766C21.3274 14.1908 20.1067 13.2981 17.9497 11.8434C17.289 11.2865 16.5057 11.4072 15.7875 11.8514C15.4421 12.065 15.1907 12.2812 14.716 12.7292L13.854 13.5424C13.7404 13.6495 12.1987 12.9215 10.7022 11.5092C9.20481 10.0961 8.43326 8.64251 8.54626 8.53597C8.7793 8.31628 9.06683 8.04505 9.40888 7.72225C9.55949 7.58011 9.63149 7.5113 9.72384 7.4198C9.91622 7.22917 10.0755 7.05617 10.2137 6.8806ZM15.4441 15.0314L16.3063 14.2181C16.5675 13.9715 16.7368 13.8199 16.8746 13.7154C18.7642 14.9948 19.8586 15.7992 20.3056 16.2371C20.5739 16.5 20.5322 16.9798 20.2989 17.2122C19.9761 17.534 19.5566 17.9297 19.0418 18.3978C16.9965 20.3269 11.608 18.8612 7.25339 14.7516C2.89741 10.6407 1.34349 5.55965 3.37334 3.64484C3.93771 3.10443 4.11652 2.93594 4.66052 2.43058C4.86449 2.24109 5.42008 2.19855 5.66821 2.42963C6.14866 2.87709 7.03988 3.95297 8.35092 5.67477C8.28305 5.75421 8.19828 5.84398 8.09512 5.9462C8.01941 6.02123 7.95633 6.08151 7.81842 6.21165C7.47664 6.53421 7.18938 6.80519 6.95665 7.02458C5.49061 8.40665 6.73914 10.7589 9.11172 12.9979C11.4827 15.2355 13.9785 16.4139 15.4441 15.0314Z" fill="black"/>
</svg>
